<?xml version="1.0" encoding="UTF-8"?>
<svg width="26px" height="23px" viewBox="0 0 26 23" version="1.1" xmlns="http://www.w3.org/2000/svg" xmlns:xlink="http://www.w3.org/1999/xlink">
    <!-- Generator: Sketch 59.1 (86144) - https://sketch.com -->
    <title>breathe</title>
    <desc>Created with Sketch.</desc>
    <g id="Page-1" stroke="none" stroke-width="1" fill="none" fill-rule="evenodd">
        <g id="Desktop-HD" transform="translate(-241.000000, -588.000000)">
            <g id="large-box" transform="translate(127.000000, 522.000000)">
                <g id="Group-4" transform="translate(115.000000, 23.000000)">
                    <g id="Group-3" transform="translate(0.000000, 39.222222)">
                        <g id="breathe" transform="translate(0.000000, 5.000000)">
                            <path d="M18.0405652,20.0823913 L16.7851304,20.0823913 C15.9847826,20.0823913 15.2466522,19.7578696 14.7054783,19.1698696 C14.1871304,18.608087 13.9137391,17.897087 13.9694348,17.0161304 L14.1872609,13.5765652 C14.3145652,13.6537826 14.4463043,13.7115652 14.5747826,13.7779565 C14.861087,13.926 15.1605652,14.0784783 15.6506087,14.2232609 C15.6832174,14.9191304 15.9923478,15.9447391 17.0323043,16.1853913 C17.4940435,16.2910435 17.6376522,15.6028696 17.1913043,15.4993043 C16.5978261,15.3632609 16.4236957,14.7872609 16.3724348,14.3866957 C16.8635217,14.4661304 17.2576957,14.4671739 17.262,14.4671739 C17.4558261,14.4671739 17.6137826,14.3093478 17.6137826,14.1155217 C17.6137826,13.9216957 17.4559565,13.7638696 17.262,13.7638696 L17.2522174,13.7626957 C15.6603913,13.742087 14.1523043,12.9232174 13.0090435,11.7156522 C12.4438696,11.1178696 11.4846522,11.1178696 10.9184348,11.7156522 C8.85182609,13.8988696 6.73617391,13.7486087 6.66534783,13.7638696 C6.47152174,13.7638696 6.31369565,13.9216957 6.31369565,14.1155217 C6.31369565,14.3093478 6.47152174,14.4671739 6.66534783,14.4671739 C6.67734783,14.4661304 7.03343478,14.4716087 7.53,14.3920435 C7.47769565,14.7937826 7.30121739,15.3632609 6.71217391,15.4994348 C6.26478261,15.6028696 6.40956522,16.292087 6.87,16.1855217 C7.90773913,15.945913 8.217,14.9266957 8.25182609,14.2309565 C8.54256522,14.147087 8.82782609,14.0371304 9.10878261,13.9064348 C9.11308696,13.9042174 9.70656522,13.5973043 9.78704348,13.5482609 C10.0451739,17.5921304 10.0026522,16.9486957 10.0093043,17.0227826 C10.1453478,18.6614348 8.85626087,20.0823913 7.19243478,20.0823913 L6.07526087,20.0823913 C5.88143478,20.0823913 5.72347826,20.2402174 5.72347826,20.433 C5.72347826,20.6278696 5.88130435,20.7858261 6.07526087,20.7858261 L7.19243478,20.7858261 C9.25252174,20.7858261 10.8781304,19.023 10.7105217,16.9682609 L10.4611304,13.068 C10.7921739,12.8088261 11.1177391,12.5290435 11.429087,12.1991739 C11.5695652,12.0521739 11.759087,11.9705217 11.9637391,11.9705217 C12.4733478,11.9705217 12.4297826,12.2775652 13.5131739,13.1093478 L13.2670435,16.9682609 C13.1864348,17.9471739 13.5229565,18.9238696 14.1881739,19.6468696 C14.8546957,20.370913 15.8008696,20.7858261 16.7851304,20.7858261 L18.0405652,20.7858261 C18.2343913,20.7858261 18.3922174,20.628 18.3922174,20.433 C18.3922174,20.2402174 18.2343913,20.0823913 18.0405652,20.0823913" id="Path" fill="#FFFFFF" fill-rule="nonzero"></path>
                            <path d="M18.0405652,20.0823913 L16.7851304,20.0823913 C15.9847826,20.0823913 15.2466522,19.7578696 14.7054783,19.1698696 C14.1871304,18.608087 13.9137391,17.897087 13.9694348,17.0161304 L14.1872609,13.5765652 C14.3145652,13.6537826 14.4463043,13.7115652 14.5747826,13.7779565 C14.861087,13.926 15.1605652,14.0784783 15.6506087,14.2232609 C15.6832174,14.9191304 15.9923478,15.9447391 17.0323043,16.1853913 C17.4940435,16.2910435 17.6376522,15.6028696 17.1913043,15.4993043 C16.5978261,15.3632609 16.4236957,14.7872609 16.3724348,14.3866957 C16.8635217,14.4661304 17.2576957,14.4671739 17.262,14.4671739 C17.4558261,14.4671739 17.6137826,14.3093478 17.6137826,14.1155217 C17.6137826,13.9216957 17.4559565,13.7638696 17.262,13.7638696 L17.2522174,13.7626957 C15.6603913,13.742087 14.1523043,12.9232174 13.0090435,11.7156522 C12.4438696,11.1178696 11.4846522,11.1178696 10.9184348,11.7156522 C8.85182609,13.8988696 6.73617391,13.7486087 6.66534783,13.7638696 C6.47152174,13.7638696 6.31369565,13.9216957 6.31369565,14.1155217 C6.31369565,14.3093478 6.47152174,14.4671739 6.66534783,14.4671739 C6.67734783,14.4661304 7.03343478,14.4716087 7.53,14.3920435 C7.47769565,14.7937826 7.30121739,15.3632609 6.71217391,15.4994348 C6.26478261,15.6028696 6.40956522,16.292087 6.87,16.1855217 C7.90773913,15.945913 8.217,14.9266957 8.25182609,14.2309565 C8.54256522,14.147087 8.82782609,14.0371304 9.10878261,13.9064348 C9.11308696,13.9042174 9.70656522,13.5973043 9.78704348,13.5482609 C10.0451739,17.5921304 10.0026522,16.9486957 10.0093043,17.0227826 C10.1453478,18.6614348 8.85626087,20.0823913 7.19243478,20.0823913 L6.07526087,20.0823913 C5.88143478,20.0823913 5.72347826,20.2402174 5.72347826,20.433 C5.72347826,20.6278696 5.88130435,20.7858261 6.07526087,20.7858261 L7.19243478,20.7858261 C9.25252174,20.7858261 10.8781304,19.023 10.7105217,16.9682609 L10.4611304,13.068 C10.7921739,12.8088261 11.1177391,12.5290435 11.429087,12.1991739 C11.5695652,12.0521739 11.759087,11.9705217 11.9637391,11.9705217 C12.4733478,11.9705217 12.4297826,12.2775652 13.5131739,13.1093478 L13.2670435,16.9682609 C13.1864348,17.9471739 13.5229565,18.9238696 14.1881739,19.6468696 C14.8546957,20.370913 15.8008696,20.7858261 16.7851304,20.7858261 L18.0405652,20.7858261 C18.2343913,20.7858261 18.3922174,20.628 18.3922174,20.433 C18.3922174,20.2402174 18.2343913,20.0823913 18.0405652,20.0823913 L18.0405652,20.0823913 Z" id="Path" stroke="#FFFFFF" stroke-width="0.5"></path>
                            <path d="M23.9431304,19.2721304 C23.2091739,13.7876087 22.5144783,8.60804348 19.1118261,6.35191304 C18.66,6.0536087 18.134087,5.8946087 17.5886087,5.8946087 C16.1861739,5.8946087 14.0193913,6.95947826 13.8962609,8.43052174 L13.8190435,9.36704348 C13.562087,8.99569565 13.3703478,8.72230435 13.3703478,8.27047826 L13.3703478,0.36326087 C13.3703478,0.168391304 13.2135652,0.0116086957 13.0186957,0.0116086957 C12.8248696,0.0116086957 12.6670435,0.168391304 12.6670435,0.36326087 L12.6670435,8.27047826 C12.6670435,8.65695652 12.7737391,9.03482609 12.9761739,9.36143478 C13.2223043,9.76213043 13.5903913,10.2521739 13.8298696,10.5266087 C14.3711739,11.145 14.8796087,11.5316087 15.3956087,11.8222174 C15.4206522,11.8352609 15.4436087,11.8571739 15.4686522,11.8702174 C15.4827391,11.88 15.5599565,11.918087 15.5883913,11.9246087 C16.086,12.1728261 16.7261739,12.3568696 17.2762174,12.3568696 C17.3283913,12.3568696 17.3654348,12.323087 17.4100435,12.3024783 C17.4481304,12.285 17.493913,12.285 17.5222174,12.2568261 C17.7443478,12.039 17.5939565,11.6578696 17.2803913,11.6535652 C17.1127826,11.6513478 16.9472609,11.6153478 16.7806957,11.5849565 C17.1028696,11.3606087 17.4296087,10.9969565 17.5906957,10.4024348 C17.640913,10.214087 17.5297826,10.0213043 17.3424783,9.97017391 C17.1551739,9.92008696 16.9625217,10.031087 16.9113913,10.2183913 C16.6793478,11.0786087 15.9847826,11.2168696 15.7952609,11.2408696 C15.2856522,10.9664348 14.8391739,10.5907826 14.4581739,10.1715652 L14.5974783,8.48817391 C14.6825217,7.4636087 16.4953043,6.59804348 17.5886087,6.59804348 C17.9947826,6.59804348 18.3867391,6.71556522 18.7231304,6.93769565 C21.860087,9.01852174 22.5341739,14.0435217 23.2462174,19.3647391 L23.2582174,19.4518696 C23.28,19.6129565 23.2321304,19.7697391 23.1254348,19.8916957 C23.0175652,20.0148261 22.8684783,20.0822609 22.7050435,20.0822609 L19.5876522,20.0822609 C19.3927826,20.0822609 19.236,20.240087 19.236,20.4328696 C19.236,20.6277391 19.3927826,20.7856957 19.5877826,20.7856957 L22.7051739,20.7856957 C23.0688261,20.7856957 23.415,20.628913 23.6546087,20.3544783 C23.894087,20.0812174 24.003,19.7186087 23.9551304,19.3582174 L23.9431304,19.2721304 L23.9431304,19.2721304 Z" id="Path" fill="#FFFFFF" fill-rule="nonzero"></path>
                            <path d="M23.9431304,19.2721304 C23.2091739,13.7876087 22.5144783,8.60804348 19.1118261,6.35191304 C18.66,6.0536087 18.134087,5.8946087 17.5886087,5.8946087 C16.1861739,5.8946087 14.0193913,6.95947826 13.8962609,8.43052174 L13.8190435,9.36704348 C13.562087,8.99569565 13.3703478,8.72230435 13.3703478,8.27047826 L13.3703478,0.36326087 C13.3703478,0.168391304 13.2135652,0.0116086957 13.0186957,0.0116086957 C12.8248696,0.0116086957 12.6670435,0.168391304 12.6670435,0.36326087 L12.6670435,8.27047826 C12.6670435,8.65695652 12.7737391,9.03482609 12.9761739,9.36143478 C13.2223043,9.76213043 13.5903913,10.2521739 13.8298696,10.5266087 C14.3711739,11.145 14.8796087,11.5316087 15.3956087,11.8222174 C15.4206522,11.8352609 15.4436087,11.8571739 15.4686522,11.8702174 C15.4827391,11.88 15.5599565,11.918087 15.5883913,11.9246087 C16.086,12.1728261 16.7261739,12.3568696 17.2762174,12.3568696 C17.3283913,12.3568696 17.3654348,12.323087 17.4100435,12.3024783 C17.4481304,12.285 17.493913,12.285 17.5222174,12.2568261 C17.7443478,12.039 17.5939565,11.6578696 17.2803913,11.6535652 C17.1127826,11.6513478 16.9472609,11.6153478 16.7806957,11.5849565 C17.1028696,11.3606087 17.4296087,10.9969565 17.5906957,10.4024348 C17.640913,10.214087 17.5297826,10.0213043 17.3424783,9.97017391 C17.1551739,9.92008696 16.9625217,10.031087 16.9113913,10.2183913 C16.6793478,11.0786087 15.9847826,11.2168696 15.7952609,11.2408696 C15.2856522,10.9664348 14.8391739,10.5907826 14.4581739,10.1715652 L14.5974783,8.48817391 C14.6825217,7.4636087 16.4953043,6.59804348 17.5886087,6.59804348 C17.9947826,6.59804348 18.3867391,6.71556522 18.7231304,6.93769565 C21.860087,9.01852174 22.5341739,14.0435217 23.2462174,19.3647391 L23.2582174,19.4518696 C23.28,19.6129565 23.2321304,19.7697391 23.1254348,19.8916957 C23.0175652,20.0148261 22.8684783,20.0822609 22.7050435,20.0822609 L19.5876522,20.0822609 C19.3927826,20.0822609 19.236,20.240087 19.236,20.4328696 C19.236,20.6277391 19.3927826,20.7856957 19.5877826,20.7856957 L22.7051739,20.7856957 C23.0688261,20.7856957 23.415,20.628913 23.6546087,20.3544783 C23.894087,20.0812174 24.003,19.7186087 23.9551304,19.3582174 L23.9431304,19.2721304 L23.9431304,19.2721304 Z" id="Path" stroke="#FFFFFF" stroke-width="0.5"></path>
                            <path d="M5.25521739,6.93808696 C5.59043478,6.71595652 5.98252174,6.59830435 6.38973913,6.59830435 C7.48186957,6.59830435 9.29478261,7.46282609 9.37969565,8.48856522 L9.51469565,10.1186087 C9.39273913,10.2546522 9.26752174,10.3646087 9.14334783,10.4833043 C8.84073913,10.7707826 8.97247826,10.7021739 8.42034783,11.0604783 C8.32773913,11.1203478 8.23643478,11.1954783 8.14278261,11.2466087 C8.00230435,11.2335652 7.23573913,11.1213913 6.99182609,10.2176087 C6.94069565,10.0303043 6.74791304,9.92034783 6.5606087,9.97043478 C6.37226087,10.0216957 6.26126087,10.2143478 6.3123913,10.4016522 C6.47347826,10.9983913 6.80021739,11.361 7.12369565,11.5873043 C6.96456522,11.6135217 6.80778261,11.6516087 6.64669565,11.6538261 C6.33521739,11.6581304 6.18391304,12.0382174 6.40604348,12.255913 C6.42782609,12.2776957 6.46369565,12.2754783 6.49095652,12.2908696 C6.54652174,12.3224348 6.59008696,12.3583043 6.65647826,12.3572609 C7.1703913,12.3507391 8.00556522,12.1188261 8.44213043,11.8879565 C9.50713043,11.3239565 10.3846957,10.2851739 10.953,9.36286957 C11.1545217,9.03521739 11.2612174,8.65852174 11.2612174,8.27191304 L11.2612174,0.362478261 C11.2612174,0.168652174 11.1033913,0.010826087 10.9095652,0.010826087 C10.7145652,0.010826087 10.5577826,0.168652174 10.5577826,0.362478261 L10.5577826,8.27191304 C10.5577826,8.83917391 10.239913,9.13747826 10.1495217,9.27143478 L10.080913,8.43091304 C9.95791304,6.95986957 7.791,5.89486957 6.38856522,5.89486957 C5.84413043,5.89486957 5.31717391,6.05269565 4.8663913,6.35230435 C1.25256522,8.74773913 0.650347826,14.67 0.022173913,19.3584783 C-0.0778695652,20.1130435 0.51,20.784913 1.27121739,20.784913 L4.0586087,20.784913 C4.25347826,20.784913 4.41143478,20.6281304 4.41143478,20.4332609 C4.41143478,20.2394348 4.2536087,20.0826522 4.0586087,20.0826522 L1.27108696,20.0826522 C1.10882609,20.0826522 0.959608696,20.0140435 0.852913043,19.892087 C0.648130435,19.659 0.733173913,19.4042609 0.730956522,19.3651304 C1.44417391,14.043913 2.11708696,9.01773913 5.25508696,6.93808696" id="Path" fill="#FFFFFF" fill-rule="nonzero"></path>
                            <path d="M5.25521739,6.93808696 C5.59043478,6.71595652 5.98252174,6.59830435 6.38973913,6.59830435 C7.48186957,6.59830435 9.29478261,7.46282609 9.37969565,8.48856522 L9.51469565,10.1186087 C9.39273913,10.2546522 9.26752174,10.3646087 9.14334783,10.4833043 C8.84073913,10.7707826 8.97247826,10.7021739 8.42034783,11.0604783 C8.32773913,11.1203478 8.23643478,11.1954783 8.14278261,11.2466087 C8.00230435,11.2335652 7.23573913,11.1213913 6.99182609,10.2176087 C6.94069565,10.0303043 6.74791304,9.92034783 6.5606087,9.97043478 C6.37226087,10.0216957 6.26126087,10.2143478 6.3123913,10.4016522 C6.47347826,10.9983913 6.80021739,11.361 7.12369565,11.5873043 C6.96456522,11.6135217 6.80778261,11.6516087 6.64669565,11.6538261 C6.33521739,11.6581304 6.18391304,12.0382174 6.40604348,12.255913 C6.42782609,12.2776957 6.46369565,12.2754783 6.49095652,12.2908696 C6.54652174,12.3224348 6.59008696,12.3583043 6.65647826,12.3572609 C7.1703913,12.3507391 8.00556522,12.1188261 8.44213043,11.8879565 C9.50713043,11.3239565 10.3846957,10.2851739 10.953,9.36286957 C11.1545217,9.03521739 11.2612174,8.65852174 11.2612174,8.27191304 L11.2612174,0.362478261 C11.2612174,0.168652174 11.1033913,0.010826087 10.9095652,0.010826087 C10.7145652,0.010826087 10.5577826,0.168652174 10.5577826,0.362478261 L10.5577826,8.27191304 C10.5577826,8.83917391 10.239913,9.13747826 10.1495217,9.27143478 L10.080913,8.43091304 C9.95791304,6.95986957 7.791,5.89486957 6.38856522,5.89486957 C5.84413043,5.89486957 5.31717391,6.05269565 4.8663913,6.35230435 C1.25256522,8.74773913 0.650347826,14.67 0.022173913,19.3584783 C-0.0778695652,20.1130435 0.51,20.784913 1.27121739,20.784913 L4.0586087,20.784913 C4.25347826,20.784913 4.41143478,20.6281304 4.41143478,20.4332609 C4.41143478,20.2394348 4.2536087,20.0826522 4.0586087,20.0826522 L1.27108696,20.0826522 C1.10882609,20.0826522 0.959608696,20.0140435 0.852913043,19.892087 C0.648130435,19.659 0.733173913,19.4042609 0.730956522,19.3651304 C1.44417391,14.043913 2.11708696,9.01773913 5.25508696,6.93808696 L5.25521739,6.93808696 Z" id="Path" stroke="#FFFFFF" stroke-width="0.5"></path>
                        </g>
                    </g>
                </g>
            </g>
        </g>
    </g>
</svg>