<?xml version="1.0" encoding="UTF-8"?>
<svg width="82px" height="66px" viewBox="0 0 82 66" version="1.1" xmlns="http://www.w3.org/2000/svg" xmlns:xlink="http://www.w3.org/1999/xlink">
    <!-- Generator: Sketch 59.1 (86144) - https://sketch.com -->
    <title>fall</title>
    <desc>Created with Sketch.</desc>
    <g id="Page-1" stroke="none" stroke-width="1" fill="none" fill-rule="evenodd">
        <g id="Artboard" transform="translate(-557.000000, -98.000000)">
            <g id="跌落" transform="translate(539.000000, 53.000000)">
                <g id="fall" transform="translate(18.000000, 38.911661)">
                    <path d="M43.8220785,30.6227191 C44.9864437,29.7232984 46.1556309,29.7919796 47.2283785,30.7055405 C48.2773,31.5989011 48.3896236,32.657147 47.4745829,33.7406434 C46.0569222,35.4185352 44.5521823,37.039866 43.1722464,38.7414931 C41.7917432,40.4441303 40.0422171,41.601358 37.7602882,42.1626753 C36.5281317,42.4658489 35.307195,42.8049343 34.0504979,43.1551672 L33.498,43.3083386 L32.9398944,44.8499227 C34.5166435,47.1240773 36.0747535,49.3712844 37.6434263,51.6336105 C41.6950201,49.7070019 45.6167042,47.7897359 49.6064633,45.9908946 C50.3618115,45.6505186 51.5497193,45.4578578 52.2582661,45.7449553 C57.1347013,47.7208022 61.9354032,49.8443643 66.7636186,51.9156579 C67.7594984,52.3426428 68.0346346,53.0958635 67.9966261,53.9980617 C67.8993356,56.309992 65.897365,57.573524 63.4446814,56.856664 C60.0088822,55.852959 56.5903854,54.8002682 53.134731,53.8543867 C52.5858767,53.7041466 51.7369254,53.8271162 51.2731649,54.1263339 C50.8022458,54.4298403 50.3363764,54.7396112 49.8734214,55.0525117 C52.8727201,58.7629834 57.7514187,64.4068079 60.4831568,67.8842881 C61.3304045,68.9630566 60.8306299,70.290907 59.3420235,71.3571083 C57.958618,72.3479064 56.7681278,72.3345852 55.6058415,71.3003046 C55.0741964,70.8272751 54.5600377,70.3386624 54.0475713,69.8490443 C51.2626399,67.1871171 46.3912731,62.3280538 43.3740146,59.4241124 C41.7214744,60.4701056 40.0305026,61.5143768 38.1877422,62.1789518 C34.7045741,63.4349087 31.6919742,62.3817129 29.6100154,59.607952 C28.614703,58.2817989 27.6491734,56.9379705 26.6910185,55.5903545 C25.4605639,53.8586793 24.2505317,52.1156414 23.0328411,50.3796736 C21.8818073,51.321515 21.8420969,52.2413886 22.4757612,53.4347244 C23.9234883,56.1605094 25.2205997,58.9509356 26.5177111,61.7375741 C27.0373498,62.8544011 26.4428286,63.9224947 25.1269966,64.538353 C23.7944296,65.1617864 22.6635346,65.0087687 21.9209504,63.9477452 C20.6624148,62.1491563 19.4172106,60.3431186 18.1764384,58.5346189 L18.1764384,58.5346189 L14.4585182,53.1067211 C13.8325123,52.1944227 13.8461273,51.3030822 14.5078725,50.3900263 C16.7305195,47.3223503 18.9117542,44.2301813 21.1485834,41.170838 C22.3061411,39.5876354 23.9166809,38.5793853 26.0712529,38.2849652 C28.4439484,37.9607495 30.7956541,37.5080091 33.1740225,37.2269717 C35.146494,36.9936577 36.8253923,36.4437031 38.2646101,35.1165399 C39.999103,33.5169245 41.9310132,32.0826995 43.8220785,30.6227191 Z M82,43.0883386 L82,64.5883386 C82,66.5213352 80.4329966,68.0883386 78.5,68.0883386 C76.5670034,68.0883386 75,66.5213352 75,64.5883386 L75,59.0883386 L55.819,59.0883386 L53.1913151,55.944321 L54.9955014,56.4532646 C55.2259202,56.5194296 55.4636737,56.5880975 55.7121104,56.6602237 L56.0931964,56.771126 L62.8838592,58.776424 L63.1020133,58.8365413 C66.6580024,59.757148 69.8433014,57.6836076 69.9948575,54.0821511 C70.067136,52.366496 69.3522435,50.9452009 67.7638759,50.1743196 L67.5517369,50.0774877 L59.2509391,46.4993212 C57.6272911,45.804293 56.3249998,45.2544172 55.0629375,44.732044 L54.6852446,44.5760394 L53.0093216,43.891333 C51.8514038,43.4221539 50.2884861,43.5630916 49.0318292,44.0628205 L48.7847921,44.1674757 L47.6613919,44.6777149 L45.9003704,45.491117 L41.2975343,47.6712252 L38.3169848,49.0950038 L35.3813283,44.8610163 L36.8653983,44.4570018 L37.8165498,44.2099845 L38.2381384,44.1047513 C39.2179242,43.86374 40.1277106,43.5254431 40.9704234,43.0901903 L82,43.0883386 Z M3.5,15.0883386 C5.43299662,15.0883386 7,16.655342 7,18.5883386 L7,43.0883386 L17.291,43.0883386 L12.8882959,49.2165819 L12.755113,49.4088169 C11.777243,50.8875342 11.7469413,52.5383287 12.6766875,54.0351756 L12.8094229,54.2383062 L16.135,59.0883386 L7,59.0883386 L7,64.5883386 C7,66.5213352 5.43299662,68.0883386 3.5,68.0883386 C1.56700338,68.0883386 0,66.5213352 0,64.5883386 L0,18.5883386 C0,16.655342 1.56700338,15.0883386 3.5,15.0883386 Z M23.7679321,24.0883391 C27.4148558,24.0869472 30.3764049,27.0260012 30.3894737,30.659857 C30.4024564,34.3001179 27.4558729,37.2569944 23.8061778,37.2648096 C20.0605913,37.2731461 17.1009821,34.3332567 17.1264793,30.6297814 C17.1516993,26.9895206 20.0957885,24.089732 23.7679321,24.0883391 Z" id="Combined-Shape" fill="#FFFFFF"></path>
                    <path d="M37.2331912,18.860972 L41.6222379,21.0105915 C42.6142211,21.4964342 43.8122357,21.0861263 44.2980784,20.0941431 C44.308843,20.0721642 44.3192032,20.0499897 44.3291539,20.0276305 L48.2832559,11.1427801 C48.7323647,10.1336344 49.9145136,9.67963483 50.9236593,10.1287437 C51.2406445,10.2698144 51.5154781,10.4909213 51.7211592,10.7703418 L56.4866145,17.2442781 C57.1092849,18.0901844 58.2802239,18.3102811 59.1675476,17.7482023 L67.2827939,12.6075667 C68.2159044,12.0164841 69.451507,12.2937525 70.0425896,13.226863 C70.2853329,13.6100687 70.3905963,14.0644111 70.3411041,14.5153229 L69.395479,23.1306844 C69.2749648,24.2286598 70.0673537,25.2164408 71.1653292,25.336955 C71.5291874,25.3768922 71.8970279,25.3162068 72.2287759,25.1615102 L78.070792,22.4373333 L78.070792,22.4373333" id="Path-2" stroke="#FFFFFF" stroke-width="2" stroke-linecap="round" stroke-linejoin="round" transform="translate(57.651992, 17.331758) rotate(25.000000) translate(-57.651992, -17.331758) "></path>
                </g>
            </g>
        </g>
    </g>
</svg>