<?xml version="1.0" encoding="UTF-8"?>
<svg width="24px" height="19px" viewBox="0 0 24 19" version="1.1" xmlns="http://www.w3.org/2000/svg" xmlns:xlink="http://www.w3.org/1999/xlink">
    <!-- Generator: Sketch 59.1 (86144) - https://sketch.com -->
    <title>heart-rhythm</title>
    <desc>Created with Sketch.</desc>
    <g id="Page-1" stroke="none" stroke-width="1" fill="none" fill-rule="evenodd">
        <g id="Desktop-HD" transform="translate(-323.000000, -590.000000)" fill="#FFFFFF" fill-rule="nonzero">
            <g id="large-box" transform="translate(127.000000, 522.000000)">
                <g id="Group-4" transform="translate(115.000000, 23.000000)">
                    <g id="Group-2" transform="translate(81.000000, 39.000000)">
                        <g id="heart-rhythm" transform="translate(0.000000, 6.000000)">
                            <path d="M23.9988632,6.45056842 C23.9988632,7.13305263 23.8873263,7.80618947 23.6700632,8.45343158 C22.6506947,13.0659789 13.836,18.6453474 13.4609684,18.8828211 C13.3437474,18.9555789 13.2122526,18.9936 13.0782316,18.9936 C12.9444632,18.9936 12.8112,18.9598737 12.6941053,18.8828211 C12.5931789,18.8171368 10.1096842,17.2499368 7.59183158,15.0958737 C7.29031579,14.8359158 7.25861053,14.3876211 7.51162105,14.0876211 C7.77082105,13.7900211 8.21861053,13.7535158 8.52050526,14.0064 C10.3975579,15.6099789 12.2943158,16.9066105 13.0817684,17.4286737 C15.7292211,15.7025684 21.5736,11.3115789 22.2899368,8.07271579 C22.4770105,7.50050526 22.5615158,6.98033684 22.5615158,6.45208421 C22.5615158,4.61355789 21.5605895,2.91865263 19.9486737,2.03077895 C17.8902316,0.888631579 15.1347789,1.41524211 13.6289684,3.23065263 C13.3582737,3.55844211 12.8021053,3.55844211 12.5262316,3.23065263 C11.0154947,1.41397895 8.26218947,0.891284211 6.20665263,2.02875789 C4.58955789,2.91865263 3.58863158,4.61254737 3.58863158,6.44930526 C3.58863158,6.97402105 3.67743158,7.49646316 3.84290526,8.00122105 C3.94901053,8.47364211 4.15237895,8.93532632 4.41094737,9.41456842 L8.58644211,9.41456842 L10.0203789,6.11898947 C10.1431579,5.83692632 10.4364632,5.65945263 10.7382316,5.69115789 C11.0456842,5.71793684 11.3019789,5.93898947 11.3703158,6.23924211 L12.4260632,10.7022316 L13.7917895,8.46303158 C13.9202526,8.25044211 14.1517895,8.12046316 14.4018947,8.12046316 L16.9936421,8.12046316 C17.3877474,8.12046316 17.7085895,8.43978947 17.7085895,8.83604211 C17.7085895,9.23014737 17.3877474,9.55136842 16.9936421,9.55136842 L14.8035789,9.55136842 L12.7464,12.9303158 C12.6151579,13.1458105 12.3838737,13.2745263 12.1380632,13.2745263 C12.0989053,13.2745263 12.0611368,13.2714947 12.0262737,13.2660632 C11.7380211,13.2199579 11.5110316,13.0074947 11.4418105,12.7256842 L10.4771368,8.66021053 L9.71482105,10.4147368 C9.60101053,10.6784842 9.34282105,10.8449684 9.05823158,10.8449684 L0.715326316,10.8449684 C0.323747368,10.8447158 0,10.5245053 0,10.1298947 C0,9.73541053 0.323621053,9.41431579 0.715326316,9.41431579 L2.81305263,9.41431579 C2.66425263,9.05911579 2.544,8.71452632 2.46947368,8.38105263 C2.26976842,7.80214737 2.16176842,7.128 2.16176842,6.44905263 C2.16176842,4.08972632 3.44488421,1.91747368 5.51797895,0.7752 C7.91924211,-0.553010526 11.0969684,-0.135410526 13.0813895,1.72926316 C15.0603789,-0.135663158 18.2357053,-0.553010526 20.6410105,0.7752 C22.7117053,1.91583158 23.9988632,4.08972632 23.9988632,6.45056842" id="Path"></path>
                        </g>
                    </g>
                </g>
            </g>
        </g>
    </g>
</svg>