<?xml version="1.0" encoding="UTF-8"?>
<svg width="780px" height="183px" viewBox="0 0 780 183" version="1.1" xmlns="http://www.w3.org/2000/svg" xmlns:xlink="http://www.w3.org/1999/xlink">
    <!-- Generator: Sketch 59.1 (86144) - https://sketch.com -->
    <title>logo-color</title>
    <desc>Created with Sketch.</desc>
    <g id="Page-1" stroke="none" stroke-width="1" fill="none" fill-rule="evenodd">
        <g id="logo" transform="translate(-1016.000000, -238.000000)">
            <g id="logo-color" transform="translate(1016.000000, 238.000000)">
                <path d="M647.99952,47.3530368 C650.148236,47.3530368 651.983764,48.1171792 653.503128,49.6444727 C655.022493,51.1717662 655.785644,53.0132402 655.785644,55.1698856 C655.785644,57.2809403 655.022493,59.1006099 653.503128,60.6279034 C651.983764,62.155197 650.148236,62.9193393 647.99952,62.9193393 C645.903332,62.9193393 644.091591,62.155197 642.571235,60.6279034 C641.050879,59.1006099 640.287728,57.2809403 640.287728,55.1698856 C640.287728,53.0132402 641.050879,51.1717662 642.571235,49.6444727 C644.091591,48.1171792 645.903332,47.3530368 647.99952,47.3530368" id="Fill-1" fill="#11D1CF"></path>
                <path d="M118.801037,150.891545 C118.749499,150.674493 118.387746,147.523769 118.387746,146.139194 C118.387746,130.808775 130.815217,118.381304 146.145637,118.381304 C147.52922,118.381304 150.732473,118.752968 150.970338,118.805497 C159.296615,119.98293 168.066907,117.369385 174.482333,110.953959 C185.328991,100.107301 185.318089,82.5350013 174.482333,71.6992452 C163.634684,60.8515959 146.073286,60.8515959 135.226628,71.6992452 C128.822104,78.1037687 126.197657,86.8631588 127.37509,95.1904269 C127.427619,95.4689276 127.799283,98.6721804 127.799283,100.03495 C127.799283,115.36537 115.371812,127.792841 100.041393,127.79185 C98.6776315,127.792841 95.5477205,127.431088 95.2890419,127.378559 C86.9320407,126.171393 78.1310241,128.794849 71.6947853,135.230097 C60.8590292,146.066844 60.8481271,163.638152 71.6947853,174.485802 C82.5315324,185.321558 100.113743,185.321558 110.95049,174.485802 C117.385738,168.049563 119.999283,159.238635 118.801037,150.891545" id="Fill-3" fill="#2CBDC0"></path>
                <path d="M87.4229352,55.2372808 C95.7492122,56.4147141 104.509593,53.7912579 110.914117,47.3867344 C121.760775,36.5400762 121.760775,18.9786785 110.914117,8.13102922 C100.078361,-2.70472681 82.506061,-2.71562897 71.6584117,8.13102922 C65.2439771,14.5464549 62.630432,23.3167471 63.8078653,31.6430241 C63.8594028,31.8808895 64.2310673,35.0831512 64.2310673,36.4677255 C64.2310673,51.7971537 51.8035959,64.2246252 36.4741677,64.2246252 C35.0895934,64.2246252 31.9388691,63.8638628 31.721817,63.8113342 C23.3747268,62.6130877 14.5628081,65.2276239 8.12756036,71.6628717 C-2.70918679,82.4996188 -2.70918679,100.08183 8.12756036,110.918577 C18.9742186,121.765235 36.5465184,121.754333 47.3822745,110.918577 C53.8185133,104.482338 56.4419695,95.6813215 55.2338119,87.3233291 C55.1822745,87.0656417 54.8195299,83.9357306 54.820521,82.5719695 C54.820521,67.2415502 67.2479924,54.8140788 82.5774206,54.8140788 C83.9411817,54.8140788 87.1444346,55.1857433 87.4229352,55.2372808" id="Fill-5" fill="#4DD8CB"></path>
                <path d="M104.459047,104.455776 C97.194244,111.719588 85.4159466,111.719588 78.1511436,104.455776 C70.8863405,97.1909733 70.8863405,85.4116849 78.1511436,78.1478729 C85.4159466,70.8820788 97.194244,70.8820788 104.459047,78.1478729 C111.72385,85.4116849 111.72385,97.1909733 104.459047,104.455776" id="Fill-7" fill="#11D1CF"></path>
                <polygon id="Fill-9" fill="#5B696B" points="283.545759 133.683675 283.545759 36.5930013 275.158033 36.5930013 275.158033 80.9439797 223.149774 80.9439797 223.149774 36.5930013 214.762048 36.5930013 214.762048 133.683675 223.149774 133.683675 223.149774 89.3317052 275.158033 89.3317052 275.158033 133.683675"></polygon>
                <path d="M429.057187,84.3994689 C430.55772,83.1199517 432.259449,82.089202 434.11678,81.336953 C435.983032,80.5827217 437.961278,80.200155 439.996018,80.200155 C442.039677,80.200155 443.957466,80.6065083 445.695865,81.4093037 C447.425344,82.2081347 448.93678,83.3122262 450.184582,84.6928361 C451.422473,86.0655172 452.411596,87.6839924 453.125192,89.5026709 C453.834823,91.326305 454.193604,93.2371563 454.193604,95.1836874 L454.193604,133.68417 L462.58232,133.68417 L462.58232,95.1836874 C462.58232,92.0230521 462.062981,88.9922516 461.039169,86.1775121 C460.01833,83.3716925 458.528699,80.8661779 456.612892,78.73431 C454.696094,76.6073977 452.366996,74.9026963 449.689029,73.6707522 C447.005116,72.437817 444.007022,71.8134206 440.778991,71.8134206 C436.941431,71.8134206 433.200008,72.6776645 429.655814,74.3853393 C426.111621,76.0940051 423.105598,78.4726582 420.719017,81.4568767 L420.396907,81.8592656 L420.116424,81.4261525 C418.244226,78.5350978 415.763489,76.1832046 412.7426,74.4368767 C409.722701,72.6955044 406.208241,71.8134206 402.297339,71.8134206 C399.232841,71.8134206 396.233756,72.4606125 393.382346,73.7371563 C390.539855,75.0097357 388.153273,76.9027471 386.288013,79.3616798 L385.620008,80.2427726 L385.620008,73.1177154 L377.232282,73.1177154 L377.232282,133.68417 L385.620008,133.68417 L385.620008,94.7912097 C385.620008,92.7425947 386.071952,90.7990368 386.963947,89.015047 C387.847022,87.2459238 389.039321,85.6938526 390.507149,84.4024422 C391.968038,83.1199517 393.67274,82.0872198 395.572689,81.3359619 C397.481558,80.5827217 399.436018,80.200155 401.38354,80.200155 C403.515408,80.200155 405.476806,80.6065083 407.214213,81.4093037 C408.943693,82.2071436 410.453146,83.3122262 411.703921,84.6928361 C412.943794,86.0684905 413.932917,87.6869657 414.644531,89.5026709 C415.353172,91.3223405 415.712943,93.234183 415.712943,95.1836874 L415.712943,133.68417 L424.100668,133.68417 L424.100668,94.7912097 C424.100668,92.7465591 424.552612,90.8020102 425.443616,89.0160381 C426.332638,87.2399771 427.548724,85.6859238 429.057187,84.3994689" id="Fill-11" fill="#5B696B"></path>
                <path d="M488.797456,94.6405616 L489.012526,94.1251868 C490.770747,89.9010953 493.627113,86.486737 497.501344,83.978249 C501.371611,81.4717433 505.652196,80.200155 510.226147,80.200155 C514.796135,80.200155 519.078701,81.4717433 522.951942,83.978249 C526.823199,86.486737 529.679565,89.9010953 531.438778,94.1251868 L531.653848,94.6405616 L488.797456,94.6405616 Z M532.529985,81.0961144 C529.708307,78.273446 526.345487,75.9958856 522.534686,74.3248818 C518.726859,72.6578424 514.58602,71.8134206 510.226147,71.8134206 C505.864292,71.8134206 501.723454,72.6578424 497.917609,74.3248818 C494.107799,75.9939034 490.74597,78.2714638 487.92231,81.0961144 C485.101624,83.9148183 482.824064,87.2786302 481.151078,91.091413 C479.485029,94.898249 478.639616,99.0390877 478.639616,103.400943 C478.639616,107.763789 479.485029,111.905619 481.151078,115.70849 C482.82109,119.519291 485.099642,122.882112 487.92231,125.70478 C490.746961,128.529431 494.109781,130.807982 497.917609,132.475022 C501.72048,134.142061 505.861319,134.988465 510.226147,134.988465 C513.304521,134.988465 516.339286,134.533548 519.24818,133.635606 C522.159057,132.736673 524.915321,131.456165 527.439667,129.82877 C529.958066,128.209304 532.257431,126.213217 534.273339,123.897995 C536.200048,121.682874 537.774915,119.198173 538.957304,116.50633 L531.24353,113.131616 C529.470442,117.145593 526.683454,120.404348 522.951942,122.823637 C519.079693,125.329151 514.797126,126.599748 510.226147,126.599748 C507.051637,126.599748 504.015881,125.974361 501.207088,124.742417 C498.393339,123.513446 495.91954,121.841451 493.854076,119.773014 C491.785639,117.70755 490.112653,115.23276 488.883682,112.419011 C487.651738,109.606254 487.026351,106.571489 487.026351,103.400943 L487.026351,103.029278 L541.811687,103.029278 C541.765105,98.8022135 540.920684,94.7882363 539.300226,91.091413 C537.630213,87.2816036 535.353644,83.9177916 532.529985,81.0961144 L532.529985,81.0961144 Z" id="Fill-13" fill="#5B696B"></path>
                <polygon id="Fill-15" fill="#5B696B" points="579.04415 73.1178145 570.303591 73.1178145 570.303591 51.3343075 561.916856 51.3343075 561.916856 73.1178145 553.95828 73.1178145 553.95828 81.50554 561.916856 81.50554 561.916856 133.683278 570.303591 133.683278 570.303591 81.50554 579.04415 81.50554"></polygon>
                <path d="M610.57954,83.4131207 C612.66879,81.724277 615.168358,80.6885718 618.004902,80.333756 C620.695753,79.9997535 623.698803,80.3466404 626.9417,81.3654968 L626.9417,73.0084956 C624.642335,72.2156112 622.374686,71.7904269 620.196236,71.7478094 C617.959311,71.697263 615.827443,72.0699187 613.882895,72.8320788 C611.934381,73.5932478 610.175169,74.6874282 608.65184,76.085878 L608.650849,76.085878 C607.126529,77.4833367 605.835118,79.139474 604.812297,81.0106811 L604.114559,82.2872249 L604.114559,73.1175172 L595.726834,73.1175172 L595.726834,133.683972 L604.114559,133.683972 L604.114559,100.270834 C604.114559,96.5016595 604.67156,93.142803 605.769705,90.2874282 C606.874788,87.4142135 608.493263,85.1009733 610.57954,83.4131207" id="Fill-17" fill="#5B696B"></path>
                <polygon id="Fill-19" fill="#5B696B" points="642.947954 133.683278 651.334689 133.683278 651.334689 73.1178145 642.947954 73.1178145"></polygon>
                <path d="M722.610236,123.897499 C724.536945,121.68337 726.111812,119.198668 727.295192,116.506826 L719.580427,113.132112 C717.806348,117.146089 715.01936,120.405835 711.288839,122.823141 C707.41659,125.328656 703.135014,126.600244 698.563044,126.600244 C695.387543,126.600244 692.352778,125.974856 689.542994,124.742912 C686.730236,123.513942 684.256437,121.842938 682.190973,119.77351 C680.123527,117.710028 678.450541,115.236229 677.219588,112.419507 C675.987644,109.604767 675.363248,106.570994 675.363248,103.400447 C675.363248,100.232874 675.987644,97.1991004 677.219588,94.3823787 C678.450541,91.5686302 680.124518,89.0928488 682.191964,87.027385 C684.254455,84.9629123 686.728254,83.2909174 689.542994,82.0589733 C692.360706,80.8260381 695.396463,80.2006506 698.563044,80.2006506 C703.134023,80.2006506 707.415598,81.4712478 711.288839,83.9787446 C715.05603,86.4198374 717.902485,89.715263 719.752879,93.7797865 L727.366551,90.4496722 C726.114785,87.797474 724.535954,85.3246658 722.670694,83.0936874 C720.701367,80.7417942 718.423807,78.7020991 715.901443,77.0340686 C713.381062,75.3680203 710.605967,74.0657078 707.65049,73.165784 C704.69997,72.2678424 701.642409,71.812925 698.563044,71.812925 C694.20218,71.812925 690.060351,72.6573469 686.253515,74.3253774 C682.444696,75.994399 679.080884,78.2719593 676.258216,81.0956188 C673.43753,83.916305 671.15997,87.2791258 669.487975,91.0919085 C667.820935,94.8997357 666.975522,99.0405743 666.975522,103.400447 C666.975522,107.763294 667.820935,111.903141 669.487975,115.707995 C671.156996,119.517804 673.434557,122.881616 676.258216,125.704285 C679.082867,128.529926 682.445687,130.807487 686.253515,132.474526 C690.057377,134.142557 694.199207,134.98797 698.563044,134.98797 C701.640427,134.98797 704.675192,134.533052 707.585078,133.635111 C710.496945,132.736178 713.25321,131.45567 715.775573,129.828274 C718.294963,128.209799 720.594328,126.213713 722.610236,123.897499" id="Fill-21" fill="#5B696B"></path>
                <path d="M777.802422,124.298203 C778.900567,122.141558 779.457568,119.719296 779.457568,117.096831 C779.457568,113.970884 778.754874,111.341482 777.368318,109.283947 C775.968877,107.205598 774.204709,105.462244 772.12537,104.103438 C770.019271,102.729766 767.718915,101.580084 765.286742,100.684125 C762.806005,99.7713164 760.472943,98.8238196 758.349995,97.869385 C756.20326,96.9080127 754.375662,95.8158145 752.918737,94.6225235 C751.399372,93.3806684 750.629283,91.7255222 750.629283,89.7036671 C750.629283,87.090122 751.564887,84.8294104 753.413299,82.9829809 C755.260719,81.1365515 757.521431,80.1999568 760.132994,80.1999568 C761.93185,80.1999568 763.64448,80.7024473 765.22232,81.6925616 C766.697085,82.6222186 767.850732,83.8809225 768.65551,85.4389403 L776.333604,82.0800839 C774.889563,79.0126125 772.728953,76.5269199 769.908267,74.6874282 C766.983515,72.7795502 763.694036,71.8132224 760.132994,71.8132224 C757.675052,71.8132224 755.332079,72.2849886 753.169487,73.2166277 C751.00293,74.1542135 749.089105,75.4446328 747.481532,77.053197 C745.869995,78.6637433 744.579576,80.577568 743.645954,82.7411512 C742.714315,84.90077 742.241558,87.2427522 742.241558,89.7036671 C742.241558,92.8296137 742.94326,95.4362211 744.328826,97.4511385 C745.732231,99.4928158 747.49739,101.214366 749.574747,102.567225 C751.669944,103.936933 753.9703,105.086615 756.412384,105.986539 C758.869334,106.892409 761.204379,107.838915 763.349131,108.801278 C765.506767,109.771571 767.335357,110.887555 768.786335,112.118508 C770.302727,113.405954 771.070834,115.080922 771.070834,117.096831 C771.070834,118.548801 770.723947,119.88382 770.041075,121.065217 C769.366132,122.235713 768.478102,123.239703 767.399779,124.046463 C766.329385,124.85124 765.108343,125.483565 763.772333,125.929563 C761.19645,126.789842 758.553172,126.824531 755.974315,125.995967 C754.730478,125.596551 753.558,125.032612 752.491571,124.319017 C751.412257,123.602447 750.501431,122.713426 749.782879,121.678712 C749.148572,120.768877 748.71645,119.75894 748.497416,118.669715 L740.756882,122.003794 C741.351545,123.911672 742.263362,125.673858 743.468546,127.241787 C744.743108,128.896933 746.271393,130.316196 748.009792,131.462905 C749.757111,132.613578 751.655078,133.497644 753.651164,134.091316 C758.077441,135.406513 762.692028,135.274696 767.045954,133.642346 C769.429563,132.748368 771.564404,131.498584 773.392003,129.926691 C775.215637,128.354798 776.700313,126.460795 777.802422,124.298203" id="Fill-22" fill="#5B696B"></path>
                <path d="M330.658056,137.302597 C315.486213,137.302597 303.142986,124.95937 303.142986,109.787527 L303.142986,73.1176163 L311.370152,73.1176163 L311.370152,109.787527 C311.370152,120.424071 320.021512,129.075431 330.658056,129.075431 C341.293609,129.075431 349.945959,120.424071 349.945959,109.787527 L349.945959,73.1176163 L358.173126,73.1176163 L358.173126,109.787527 C358.173126,124.95937 345.829898,137.302597 330.658056,137.302597" id="Fill-23" fill="#5B696B"></path>
            </g>
        </g>
    </g>
</svg>