<?xml version="1.0" encoding="UTF-8"?>
<svg width="183px" height="183px" viewBox="0 0 183 183" version="1.1" xmlns="http://www.w3.org/2000/svg" xmlns:xlink="http://www.w3.org/1999/xlink">
    <!-- Generator: Sketch 59.1 (86144) - https://sketch.com -->
    <title>logo</title>
    <desc>Created with Sketch.</desc>
    <g id="Page-1" stroke="none" stroke-width="1" fill="none" fill-rule="evenodd">
        <g id="logo" transform="translate(-1016.000000, -238.000000)">
            <g id="logo-color" transform="translate(1016.000000, 238.000000)">
                <g id="logo" transform="translate(0.000000, 0.000123)">
                    <path d="M118.801037,150.891422 C118.749499,150.67437 118.387746,147.523645 118.387746,146.139071 C118.387746,130.808652 130.815217,118.38118 146.145637,118.38118 C147.52922,118.38118 150.732473,118.752845 150.970338,118.805373 C159.296615,119.982807 168.066907,117.369262 174.482333,110.953836 C185.328991,100.107178 185.318089,82.5348779 174.482333,71.6991219 C163.634684,60.8514726 146.073286,60.8514726 135.226628,71.6991219 C128.822104,78.1036454 126.197657,86.8630355 127.37509,95.1903036 C127.427619,95.4688042 127.799283,98.6720571 127.799283,100.034827 C127.799283,115.365246 115.371812,127.792718 100.041393,127.791727 C98.6776315,127.792718 95.5477205,127.430964 95.2890419,127.378436 C86.9320407,126.171269 78.1310241,128.794725 71.6947853,135.229973 C60.8590292,146.06672 60.8481271,163.638029 71.6947853,174.485678 C82.5315324,185.321434 100.113743,185.321434 110.95049,174.485678 C117.385738,168.04944 119.999283,159.238512 118.801037,150.891422" id="Fill-3" fill="#2CBDC0"></path>
                    <path d="M87.4229352,55.2371574 C95.7492122,56.4145907 104.509593,53.7911346 110.914117,47.3866111 C121.760775,36.5399529 121.760775,18.9785552 110.914117,8.13090585 C100.078361,-2.70485018 82.506061,-2.71575235 71.6584117,8.13090585 C65.2439771,14.5463315 62.630432,23.3166238 63.8078653,31.6429008 C63.8594028,31.8807661 64.2310673,35.0830278 64.2310673,36.4676022 C64.2310673,51.7970304 51.8035959,64.2245018 36.4741677,64.2245018 C35.0895934,64.2245018 31.9388691,63.8637394 31.721817,63.8112108 C23.3747268,62.6129643 14.5628081,65.2275005 8.12756036,71.6627483 C-2.70918679,82.4994954 -2.70918679,100.081706 8.12756036,110.918453 C18.9742186,121.765112 36.5465184,121.75421 47.3822745,110.918453 C53.8185133,104.482215 56.4419695,95.6811981 55.2338119,87.3232057 C55.1822745,87.0655183 54.8195299,83.9356072 54.820521,82.5718461 C54.820521,67.2414268 67.2479924,54.8139554 82.5774206,54.8139554 C83.9411817,54.8139554 87.1444346,55.18562 87.4229352,55.2371574" id="Fill-5" fill="#4DD8CB"></path>
                    <path d="M104.459047,104.455653 C97.194244,111.719465 85.4159466,111.719465 78.1511436,104.455653 C70.8863405,97.1908499 70.8863405,85.4115615 78.1511436,78.1477496 C85.4159466,70.8819554 97.194244,70.8819554 104.459047,78.1477496 C111.72385,85.4115615 111.72385,97.1908499 104.459047,104.455653" id="Fill-7" fill="#11D1CF"></path>
                </g>
            </g>
        </g>
    </g>
</svg>