<?xml version="1.0" encoding="UTF-8"?>
<svg width="82px" height="59px" viewBox="0 0 82 59" version="1.1" xmlns="http://www.w3.org/2000/svg" xmlns:xlink="http://www.w3.org/1999/xlink">
    <!-- Generator: Sketch 59.1 (86144) - https://sketch.com -->
    <title>out</title>
    <desc>Created with Sketch.</desc>
    <g id="Page-1" stroke="none" stroke-width="1" fill="none" fill-rule="evenodd">
        <g id="Artboard" transform="translate(-406.000000, -102.000000)" fill="#FFFFFF">
            <g id="下床" transform="translate(388.000000, 53.000000)">
                <path d="M73.3934433,82.9994633 L100,83 L100,104.5 C100,106.432997 98.4329966,108 96.5,108 C94.5670034,108 93,106.432997 93,104.5 L93,99 L76.125,99 L76.1253333,89.0666667 L76.1209386,88.8064113 C76.0370231,86.4933632 74.9972742,84.4321286 73.3934433,82.9994633 Z M21.5,55 C23.4329966,55 25,56.5670034 25,58.5 L25,83 L44.5989518,83.0001664 C43.8691804,87.754188 47.45402,92.438493 52.4598266,92.5959173 L52.72,92.6 L65.992,92.6 L65.992,99 L25,99 L25,104.5 C25,106.432997 23.4329966,108 21.5,108 C19.5670034,108 18,106.432997 18,104.5 L18,58.5 C18,56.5670034 19.5670034,55 21.5,55 Z M61.736,63 C66.1990222,63 69.1793963,67.4479444 67.4988188,71.4743226 L67.4093333,71.6786667 L62.288,82.9333333 L67.992,82.9333333 C71.2903704,82.9333333 74.0023638,85.5720296 74.121268,88.84271 L74.1253333,89.0666667 L74.1253333,102.933333 C74.1253333,104.531014 72.8764134,105.836994 71.3016061,105.928241 L71.1253333,105.933333 L70.992,105.933333 C69.3943191,105.933333 68.0883391,104.684413 67.9970927,103.109606 L67.992,102.933333 L67.992,90.6 L52.72,90.6 C48.3172889,90.6 45.308267,85.9444848 46.9587141,81.9111876 L47.0466667,81.7066667 L52.5,70 L48.092,70.1333333 L44.8088697,76.7775257 C44.1991781,78.0113812 42.8336924,78.665 41.502306,78.3844443 L41.3210389,78.3403632 L40.0874693,77.9998466 C39.9843575,77.9713834 39.8836954,77.9346939 39.7864516,77.8901311 C38.8301148,77.4518813 38.3845821,76.3543115 38.7418245,75.3833492 L38.8014681,75.2387526 L42.2653333,67.68 C43.2424368,65.5185287 45.3630678,64.1003504 47.7439499,64.0051151 L48,64 L61.736,63 Z M69.1253333,49 C72.9913266,49 76.1253333,52.1340068 76.1253333,56 C76.1253333,59.8659932 72.9913266,63 69.1253333,63 C65.2593401,63 62.1253333,59.8659932 62.1253333,56 C62.1253333,52.1340068 65.2593401,49 69.1253333,49 Z" id="out"></path>
            </g>
        </g>
    </g>
</svg>