<?xml version="1.0" encoding="UTF-8"?>
<svg width="82px" height="53px" viewBox="0 0 82 53" version="1.1" xmlns="http://www.w3.org/2000/svg" xmlns:xlink="http://www.w3.org/1999/xlink">
    <!-- Generator: Sketch 59.1 (86144) - https://sketch.com -->
    <title>sleep</title>
    <desc>Created with Sketch.</desc>
    <g id="Page-1" stroke="none" stroke-width="1" fill="none" fill-rule="evenodd">
        <g id="Artboard" transform="translate(-255.000000, -108.000000)" fill="#FFFFFF">
            <g id="平臥" transform="translate(237.000000, 53.000000)">
                <path d="M21.5,55 C23.4329966,55 25,56.5670034 25,58.5 L25,83 L100,83 L100,104.5 C100,106.432997 98.4329966,108 96.5,108 C94.5670034,108 93,106.432997 93,104.5 L93,99 L25,99 L25,104.5 C25,106.432997 23.4329966,108 21.5,108 C19.5670034,108 18,106.432997 18,104.5 L18,58.5 C18,56.5670034 19.5670034,55 21.5,55 Z M37,68 C40.8659932,68 44,71.1340068 44,75 C44,78.8659932 40.8659932,82 37,82 C33.1340068,82 30,78.8659932 30,75 C30,71.1340068 33.1340068,68 37,68 Z M55.8946508,67.0011573 L84.180574,67 C88.6381677,67 90.2545989,67.406112 91.8842285,68.1687056 C93.5138581,68.9312991 94.792801,70.0503741 95.6643365,71.4763 L95.8182955,71.735988 L95.9632001,71.9987574 C96.6415687,73.2816308 97,74.7893784 97,78.2169977 L97,81 L46,81 L46,75.9735982 C46,72.8532826 46.3713024,71.7217808 47.0685308,70.58104 C47.7657592,69.4402993 48.7889135,68.5450393 50.0926172,67.9349645 L50.3629473,67.8128243 L50.6374703,67.6989008 C51.7499401,67.2597441 53.0708966,67.0196613 55.8946508,67.0011573 Z" id="sleep"></path>
            </g>
        </g>
    </g>
</svg>