<?xml version="1.0" encoding="UTF-8"?>
<svg width="64px" height="47px" viewBox="0 0 64 47" version="1.1" xmlns="http://www.w3.org/2000/svg" xmlns:xlink="http://www.w3.org/1999/xlink">
    <!-- Generator: Sketch 59.1 (86144) - https://sketch.com -->
    <title>timeout</title>
    <desc>Created with Sketch.</desc>
    <g id="Symbols" stroke="none" stroke-width="1" fill="none" fill-rule="evenodd">
        <g id="離床超時" transform="translate(0.000000, -9.000000)" fill="#FFFFFF">
            <g id="timeout" transform="translate(0.000000, 9.000000)">
                <path d="M54.2940126,27.3164705 L64,27.3170732 L64,44.097561 C64,45.6062413 62.776973,46.8292683 61.2682927,46.8292683 C59.7596124,46.8292683 58.5365854,45.6062413 58.5365854,44.097561 L58.5365854,39.804878 L46.3637787,39.8052084 C50.4291852,36.8441518 53.338003,32.4202538 54.2940126,27.3164705 Z M2.73170732,5.46341463 C4.24038761,5.46341463 5.46341463,6.68644166 5.46341463,8.19512195 L5.46341463,27.3170732 L14.3881985,27.3166792 C15.3423246,32.4209919 18.2458542,36.8443937 22.3062548,39.8051021 L5.46341463,39.804878 L5.46341463,44.097561 C5.46341463,45.6062413 4.24038761,46.8292683 2.73170732,46.8292683 C1.22302702,46.8292683 0,45.6062413 0,44.097561 L0,8.19512195 C0,6.68644166 1.22302702,5.46341463 2.73170732,5.46341463 Z" id="Combined-Shape"></path>
                <path d="M40.3252033,0 L28.3577236,0 L28.3577236,3.93960511 L40.3252033,3.93960511 L40.3252033,0 Z M32.3468835,25.6074332 L36.3360434,25.6074332 L36.3360434,13.7886179 L32.3468835,13.7886179 L32.3468835,25.6074332 Z M48.3533875,12.5771893 L51.195664,9.77022067 C50.3379946,8.75577236 49.400542,7.82996516 48.3733333,6.98295006 L45.5310569,9.7899187 C42.4693767,7.36706156 38.5699729,5.90940767 34.3314905,5.90940767 C24.4084553,5.90940767 16.3902439,13.847712 16.3902439,23.6376307 C16.3902439,33.4275494 24.4084553,41.3658537 34.3314905,41.3658537 C44.2545257,41.3658537 52.2926829,33.4275494 52.2926829,23.6376307 C52.2926829,19.4518002 50.8166938,15.6106852 48.3533875,12.5771893 Z M34.3414634,37.4262485 C26.6324119,37.4262485 20.3794038,31.2509175 20.3794038,23.6376307 C20.3794038,16.0243438 26.6324119,9.84901278 34.3414634,9.84901278 C42.0505149,9.84901278 48.303523,16.0243438 48.303523,23.6376307 C48.303523,31.2509175 42.0505149,37.4262485 34.3414634,37.4262485 Z" id="Shape" fill-rule="nonzero"></path>
            </g>
        </g>
    </g>
</svg>